<?xml version="1.0" encoding="UTF-8" standalone="no"?><!DOCTYPE svg PUBLIC "-//W3C//DTD SVG 1.1//EN" "http://www.w3.org/Graphics/SVG/1.1/DTD/svg11.dtd"><svg width="100%" height="100%" viewBox="0 0 448 192" version="1.1" xmlns="http://www.w3.org/2000/svg" xmlns:xlink="http://www.w3.org/1999/xlink" xml:space="preserve" xmlns:serif="http://www.serif.com/" style="fill-rule:evenodd;clip-rule:evenodd;stroke-linejoin:round;stroke-miterlimit:1.41421;"><path d="M276.066,43.481c0,23.505 -19.053,42.557 -42.558,42.557c-23.502,0 -42.556,-19.052 -42.556,-42.557c0,-23.503 19.054,-42.554 42.556,-42.554c23.505,0 42.558,19.051 42.558,42.554Z" style="fill:#cd6374;fill-rule:nonzero;"/><path d="M0,191.964l73.677,-98.686l12.842,16.899l82.464,-110.177l67.594,85.167l15.129,-20.3l58.035,71.286l12.005,-15.162l60.157,70.973l-381.903,0Z" style="fill:#b7a99f;fill-rule:nonzero;"/><path d="M447.761,191.964l-45.69,-61.201l-7.964,10.479l-51.141,-68.326l-41.035,52.817l-11.151,-13.475l-32.894,47.75l-9.656,-12.058l-30.672,44.014l230.203,0Z" style="fill:#e6b4b6;fill-rule:nonzero;"/></svg>